<?xml version="1.0" encoding="iso-8859-1"?>
<!-- Uploaded to: SVG Repo, www.svgrepo.com, Generator: SVG Repo Mixer Tools -->
<svg fill="#000000" height="800px" width="800px" version="1.1" id="Layer_1" xmlns="http://www.w3.org/2000/svg" xmlns:xlink="http://www.w3.org/1999/xlink" 
	 viewBox="0 0 511.999 511.999" xml:space="preserve">
<g>
	<g>
		<path d="M409.845,393.716c-3.653-2.628-8.752-1.796-11.38,1.862c-1.542,2.144-3.143,4.27-4.761,6.319
			c-2.79,3.534-2.187,8.662,1.347,11.452c1.496,1.181,3.278,1.754,5.048,1.754c2.409,0,4.796-1.063,6.406-3.102
			c1.768-2.24,3.518-4.563,5.202-6.907C414.336,401.439,413.502,396.343,409.845,393.716z"/>
	</g>
</g>
<g>
	<g>
		<path d="M504.199,32.779c-1.107-3.48-4.393-5.821-8.041-5.682c-3.252,0.107-6.076,2.136-7.274,5.085
			c-0.04,0.049-0.085,0.091-0.124,0.141c-23.31,29.502-49.925,50.839-79.104,63.419c-24.679,10.641-67.183,22.155-73.636,23.879
			c-24.847-11.399-52.051-17.444-79.818-17.444c-27.132,0-53.752,5.772-78.151,16.683c-0.746-0.507-1.584-0.906-2.506-1.148
			c-0.476-0.125-47.847-12.62-74.47-24.1C71.894,81.031,45.28,59.694,21.97,30.193c-0.074-0.092-0.154-0.175-0.232-0.264
			c-0.058-0.067-0.114-0.134-0.174-0.199c-0.262-0.285-0.537-0.549-0.83-0.789c-0.035-0.028-0.071-0.053-0.105-0.08
			c-0.296-0.235-0.603-0.446-0.923-0.634c-0.037-0.022-0.072-0.046-0.109-0.067c-0.339-0.192-0.69-0.356-1.049-0.496
			c-0.07-0.027-0.139-0.053-0.21-0.078c-0.365-0.132-0.737-0.242-1.115-0.321c-0.047-0.01-0.096-0.014-0.142-0.024
			c-0.383-0.072-0.769-0.117-1.158-0.134c-0.028-0.001-0.054-0.009-0.082-0.01c-0.011,0-0.022,0.002-0.032,0.001
			c-0.409-0.012-0.819,0.013-1.226,0.062c-0.047,0.005-0.095,0.011-0.141,0.017c-0.413,0.058-0.823,0.146-1.226,0.267
			c-0.808,0.245-1.586,0.621-2.309,1.127c-0.017,0.012-0.034,0.024-0.051,0.036c-0.112,0.079-0.226,0.153-0.336,0.239
			c-0.565,0.447-1.046,0.957-1.459,1.507c-0.023,0.03-0.047,0.06-0.07,0.09c-0.241,0.332-0.457,0.676-0.644,1.035
			c-0.023,0.045-0.044,0.09-0.066,0.136c-0.187,0.376-0.352,0.762-0.478,1.159c0,0,0,0.001-0.001,0.001
			C1.556,52.438-6.601,91.66,8.937,133.468c14.027,37.751,40.656,59.497,50.68,67.683c7.499,6.125,14.679,10.964,21.565,14.899
			c-10.846,24.426-16.346,50.465-16.346,77.494c0,105.519,85.846,191.365,191.366,191.365c32.925,0,65.399-8.503,93.909-24.589
			c3.922-2.214,5.308-7.186,3.095-11.109c-2.214-3.921-7.186-5.308-11.109-3.095c-26.07,14.71-55.772,22.485-85.895,22.485
			c-94.535,0-171.796-75.326-174.946-169.108c14.003,27.195,42.346,45.85,74.982,45.85c22.061,0,43.26-8.801,58.893-24.016
			c0.479,1.313,0.959,2.628,1.417,3.967c0.117,0.346,0.27,0.671,0.428,0.99c0.801,11.613,4.312,33.164,9.237,52.199
			c8.529,32.962,17.778,47.662,29.988,47.662c12.21,0,21.459-14.7,29.988-47.662c5.09-19.669,8.668-42.02,9.309-53.322
			c0.367-1.075,0.755-2.127,1.137-3.184c15.565,14.817,36.475,23.366,58.221,23.366c33.743,0,62.904-19.936,76.363-48.641
			c-0.41,23.468-5.379,46.168-14.809,67.513c-1.82,4.119,0.045,8.934,4.164,10.754c1.071,0.474,2.19,0.698,3.29,0.698
			c3.13,0,6.117-1.813,7.462-4.862c10.776-24.392,16.24-50.387,16.24-77.261c0-27.119-5.537-53.208-16.438-77.673
			c6.791-3.902,13.867-8.686,21.253-14.717c10.025-8.187,36.653-29.932,50.68-67.684C518.601,91.66,510.443,52.438,504.199,32.779z
			 M416.115,110.716c20.312-8.757,39.407-21.36,57.091-37.6c-3.893,7.12-8.304,13.836-13.225,20.112
			c-23.635,30.147-52.795,42.344-81.407,53.192c-6.905-5.747-14.172-10.974-21.745-15.654
			C373.537,125.957,398.644,118.25,416.115,110.716z M94.617,108.587c18.75,8.085,46.296,16.369,62.813,21.056
			c-8.288,4.993-16.22,10.63-23.72,16.884c-28.703-10.874-57.978-23.053-81.691-53.299c-5.351-6.824-10.091-14.173-14.225-21.992
			C55.402,87.356,74.408,99.873,94.617,108.587z M156.24,329.033c-37.491,0-67.993-30.502-67.993-67.993
			c0-13.043,3.644-25.53,10.563-36.402c8.32,3.425,16.18,5.884,23.631,8.214c0.919,0.287,1.834,0.574,2.747,0.861
			c-3.489,6.099-5.317,12.963-5.317,20.1c0,22.386,18.213,40.599,40.599,40.599c12.484,0,24.382-5.857,32.043-15.694
			c5.907,7.839,11.159,16.554,15.733,26.121C195.288,320.266,176.566,329.033,156.24,329.033z M136.179,253.814
			c0-5.224,1.631-10.199,4.717-14.388c0.064-0.087,0.116-0.178,0.176-0.266c10.254,4.005,20.514,9.338,31.395,18.396
			c3.302,2.75,6.459,5.706,9.493,8.833c-0.736,0.5-1.405,1.122-1.965,1.878c-4.638,6.252-11.755,9.838-19.526,9.838
			C147.076,278.105,136.179,267.209,136.179,253.814z M220.514,292.878c-9.9-19.23-22.49-35.261-37.613-47.854
			c-19.91-16.575-38.05-22.249-55.593-27.736c-17.648-5.519-35.899-11.226-57.375-28.768c-9.941-8.118-33.223-27.131-45.709-60.732
			c-8.338-22.436-8.983-44.132-6.951-61.695c5.789,13.532,13.115,25.977,21.912,37.196c27.882,35.566,62.843,48.734,93.687,60.353
			c27.961,10.533,52.11,19.629,69.17,42.464C217.771,227.16,223.951,256.272,220.514,292.878z M271.306,370.807
			c-7.003,28.544-13.033,36.524-15.103,38.542c-2.07-2.018-8.1-9.998-15.105-38.544c-5.211-21.236-7.987-42.02-7.987-48.858
			c0-12.732,10.359-23.091,23.091-23.091c9.91,0,18.356,6.286,21.626,15.071c0.444,2.646,0.939,5.328,1.466,8.032
			C279.29,328.809,276.516,349.581,271.306,370.807z M274.7,287.172c-5.52-2.947-11.816-4.625-18.498-4.625
			c-6.851,0-13.298,1.761-18.917,4.85c2.387-37.554-5.021-68.086-22.178-91.052c-16.958-22.698-39.404-33.572-63.657-43.069
			c30.129-22.51,66.897-34.792,104.753-34.792c37.818,0.001,74.5,12.245,104.606,34.692c-24.352,9.519-46.896,20.39-63.915,43.169
			C279.771,219.264,272.356,249.722,274.7,287.172z M354.857,329.033c-20.024,0-38.478-8.521-51.411-23.521
			c4.277-9.047,9.162-17.331,14.623-24.848c7.662,8.656,18.789,13.747,30.426,13.747c22.386,0,40.599-18.213,40.599-40.599
			c0-6.821-1.674-13.389-4.866-19.28c1.769-0.564,3.544-1.122,5.332-1.681c7.237-2.264,14.861-4.651,22.916-7.923
			c6.799,10.803,10.375,23.185,10.375,36.112C422.85,298.531,392.348,329.033,354.857,329.033z M328.631,267.854
			c3.457-3.681,7.087-7.122,10.902-10.299c10.036-8.356,19.545-13.534,29.009-17.432c2.768,4.04,4.244,8.75,4.244,13.69
			c0,13.394-10.896,24.291-24.291,24.291c-7.771,0-14.888-3.586-19.526-9.838C328.862,268.122,328.745,267.99,328.631,267.854z
			 M487.777,127.787c-12.485,33.601-35.767,52.614-45.71,60.732c-21.477,17.541-39.727,23.248-57.375,28.767
			c-17.543,5.487-35.684,11.161-55.593,27.736c-15.124,12.594-27.712,28.621-37.613,47.855
			c-3.437-36.607,2.743-65.718,18.474-86.772c17.06-22.836,41.208-31.933,69.169-42.466c30.845-11.619,65.804-24.788,93.687-60.352
			c8.798-11.22,16.123-23.665,21.912-37.197C496.759,83.656,496.114,105.352,487.777,127.787z"/>
	</g>
</g>
</svg>